<?xml version="1.0" standalone="no"?>
<!DOCTYPE svg PUBLIC "-//W3C//DTD SVG 20010904//EN"
 "http://www.w3.org/TR/2001/REC-SVG-20010904/DTD/svg10.dtd">
<svg version="1.0" xmlns="http://www.w3.org/2000/svg"
 width="500.000000pt" height="500.000000pt" viewBox="0 0 500.000000 500.000000"
 preserveAspectRatio="xMidYMid meet">
<metadata>
Created by potrace 1.16, written by Peter Selinger 2001-2019
</metadata>
<g transform="translate(0.000000,500.000000) scale(0.100000,-0.100000)"
fill="#000000" stroke="none">
<path d="M2394 4502 c-29 -19 -34 -56 -34 -241 0 -219 7 -204 -105 -216 -165
-16 -356 -70 -504 -142 -188 -91 -308 -174 -454 -313 -256 -243 -401 -510
-476 -875 -12 -60 -26 -117 -30 -125 -7 -13 -61 -16 -365 -20 -339 -5 -358 -6
-372 -24 -20 -28 -17 -63 6 -86 19 -19 33 -20 374 -20 313 0 355 -2 360 -16 3
-9 6 -47 6 -86 0 -153 78 -445 165 -618 137 -272 392 -545 641 -685 207 -116
388 -182 579 -211 55 -8 116 -18 135 -22 l35 -7 3 -347 2 -347 26 -20 c31 -24
43 -26 78 -9 17 7 30 24 36 47 6 21 10 175 10 358 l0 322 43 5 c23 3 74 8 112
11 280 24 562 136 815 324 99 73 275 254 351 360 112 158 247 468 279 643 7
35 17 115 24 178 l11 115 395 2 c389 3 395 3 413 24 21 26 22 58 1 87 l-15 22
-388 0 c-299 0 -391 3 -399 13 -5 6 -20 67 -31 135 -26 147 -65 268 -136 419
-93 197 -193 333 -359 490 -118 112 -225 184 -386 261 -196 95 -339 134 -574
158 -82 8 -154 18 -159 21 -5 3 -8 83 -7 187 3 224 3 221 -16 240 -16 16 -71
21 -90 8z m-34 -1169 c0 -456 -2 -534 -14 -524 -8 6 -20 26 -27 44 -7 18 -30
58 -51 89 -76 114 -156 115 -236 4 -69 -96 -174 -331 -267 -598 -31 -87 -47
-114 -63 -104 -6 3 -33 43 -59 88 -56 95 -154 205 -200 225 -24 9 -89 13 -241
13 -167 0 -212 3 -221 14 -14 16 -3 96 30 221 65 250 196 464 411 671 197 189
414 306 694 374 107 26 216 39 232 27 9 -7 12 -128 12 -544z m435 526 c311
-61 530 -174 736 -379 213 -213 327 -409 394 -679 13 -53 26 -121 30 -152 9
-80 2 -83 -144 -76 -297 15 -373 54 -616 318 -75 82 -105 97 -172 84 -79 -15
-214 -198 -361 -491 -38 -76 -86 -184 -106 -239 -20 -55 -46 -122 -57 -150
l-19 -50 5 120 c3 66 8 471 11 900 4 429 11 791 15 803 9 23 11 24 97 17 48
-4 132 -16 187 -26z m-587 -1086 c66 -173 96 -305 117 -503 20 -184 37 -720
33 -1045 l-3 -250 -55 2 c-119 5 -373 79 -509 148 -113 56 -272 169 -367 259
-214 200 -354 442 -418 719 -28 119 -52 298 -43 321 6 14 32 16 211 16 l204 0
33 -27 c18 -15 73 -91 124 -168 101 -156 130 -185 183 -185 47 0 89 45 126
136 16 38 39 94 51 124 13 30 40 100 60 155 21 55 60 144 86 198 105 209 122
219 167 100z m957 -44 c106 -107 184 -166 286 -213 110 -53 185 -68 359 -75
l155 -6 4 -30 c5 -42 -16 -182 -44 -296 -118 -478 -495 -897 -949 -1055 -135
-47 -199 -62 -336 -79 -86 -10 -118 -11 -128 -2 -16 13 -11 164 14 452 34 389
78 573 211 885 55 129 88 195 152 303 59 99 148 207 170 207 9 0 57 -41 106
-91z"/>
</g>
</svg>
